<svg width="100" height="208" viewBox="-50 -104 100 208" xmlns="http://www.w3.org/2000/svg">
  <rect x="-98" y="76" width="196" height="14" rx="3" fill="#111827" transform="scale(0.5)"/>
  <g>
    <rect x="-49" y="38" width="98" height="7" rx="1.5" fill="#111827"/>
    <rect x="-32" y="-52" width="64" height="6" rx="1.5" fill="#111827"/>
    <rect x="-35" y="-35" width="9" height="17" rx="2" fill="#1f2937"/>
    <rect x="26" y="-35" width="9" height="17" rx="2" fill="#1f2937"/>
    <rect x="-38" y="23" width="10" height="20" rx="2" fill="#1f2937"/>
    <rect x="28" y="23" width="10" height="20" rx="2" fill="#1f2937"/>
    <path d="M0 -44 C 15 -30, 20 -10, 17 15 C 15 30, 10 41, 0 46 C -10 41, -15 30, -17 15 C -20 -10, -15 -30, 0 -44 Z" fill="#2563eb" stroke="#1e3a8a" stroke-width="1.5"/>
    <circle cx="0" cy="-15" r="7.5" fill="#0f172a"/>
    <rect x="-2" y="-4" width="4" height="30" rx="1.5" fill="#93c5fd"/>
    <path d="M-17 15 L17 15 L 15 22 L -15 22 Z" fill="#1e40af"/>
  </g>
</svg>
